<svg xmlns="http://www.w3.org/2000/svg" xmlns:xlink="http://www.w3.org/1999/xlink" fill="none" version="1.1" width="101.5999984741211" height="101.5999984741211" viewBox="0 0 101.5999984741211 101.5999984741211"><defs><filter id="master_svg0_32_69" filterUnits="userSpaceOnUse" color-interpolation-filters="sRGB" x="-13.7344970703125" y="0.7999935150146484" width="128.95541381835938" height="122.2760238647461"><feFlood flood-opacity="0" result="BackgroundImageFix"/><feColorMatrix in="SourceAlpha" type="matrix" values="0 0 0 0 0 0 0 0 0 0 0 0 0 0 0 0 0 0 127 0"/><feOffset dy="11" dx="0"/><feGaussianBlur stdDeviation="11"/><feColorMatrix type="matrix" values="0 0 0 0 0.3960784375667572 0 0 0 0 0.47843137383461 0 0 0 0 0.5764706134796143 0 0 0 0.27000001072883606 0"/><feBlend mode="normal" in2="BackgroundImageFix" result="effect1_dropShadow"/><feBlend mode="normal" in="SourceGraphic" in2="effect1_dropShadow" result="shape"/></filter><linearGradient x1="0.4996841251850128" y1="-0.02316455729305744" x2="0.4996841251850128" y2="1.0107594728469849" id="master_svg1_32_075"><stop offset="0%" stop-color="#FDFEFF" stop-opacity="1"/><stop offset="99.6399998664856%" stop-color="#ECF0F5" stop-opacity="1"/></linearGradient></defs><g style="mix-blend-mode:passthrough"><g><path d="M3.29998779296875,89C4.95690779296875,89,6.29998779296875,87.65577,6.29998779296875,86C6.29998779296875,84.33846,4.95690779296875,83,3.29998779296875,83C1.64306779296875,83,0.29998779296875,84.33846,0.29998779296875,86C0.29998779296875,87.65577,1.64306779296875,89,3.29998779296875,89Z" fill="#EAEEF9" fill-opacity="1"/><g style="mix-blend-mode:passthrough"><g><path d="M101.6,50.79999380111694C101.6,64.99999380111694,95.7886,77.79999380111694,86.4702,86.99999380111694C77.3523,96.09999380111694,64.7274,101.59999380111694,50.8,101.59999380111694C36.9728,101.59999380111694,24.3479,95.99999380111694,15.1298,86.99999380111694C5.81144,77.79999380111694,0,64.99999380111694,0,50.79999380111694C0,22.699993801116943,22.7448,-0.000006198883056640625,50.8,-0.000006198883056640625C78.8552,-0.000006198883056640625,101.6,22.799993801116944,101.6,50.79999380111694Z" fill="#EAEEF9" fill-opacity="1"/></g></g><g style="mix-blend-mode:passthrough"><g><path d="M94.99996337890624,17.499993515014648C97.26496337890624,17.499993515014648,99.09996337890625,15.659993515014648,99.09996337890625,13.399993515014648C99.09996337890625,11.129993515014649,97.26496337890624,9.299993515014648,94.99996337890624,9.299993515014648C92.73596337890625,9.299993515014648,90.89996337890625,11.129993515014649,90.89996337890625,13.399993515014648C90.89996337890625,15.659993515014648,92.73596337890625,17.499993515014648,94.99996337890624,17.499993515014648Z" fill="#EAEEF9" fill-opacity="1"/></g></g><g style="mix-blend-mode:passthrough"><g><path d="M98.00001220703125,6.499993896484375C99.54701220703124,6.499993896484375,100.80001220703124,5.239993896484375,100.80001220703124,3.699993896484375C100.80001220703124,2.149993896484375,99.54701220703124,0.899993896484375,98.00001220703125,0.899993896484375C96.45401220703125,0.899993896484375,95.20001220703125,2.149993896484375,95.20001220703125,3.699993896484375C95.20001220703125,5.239993896484375,96.45401220703125,6.499993896484375,98.00001220703125,6.499993896484375Z" fill="#EAEEF9" fill-opacity="1"/></g></g><g style="mix-blend-mode:passthrough"><g><path d="M3.59998779296875,17.39999351501465C5.14698779296875,17.39999351501465,6.39998779296875,16.13999351501465,6.39998779296875,14.59999351501465C6.39998779296875,13.049993515014648,5.14698779296875,11.799993515014648,3.59998779296875,11.799993515014648C2.05398779296875,11.799993515014648,0.79998779296875,13.049993515014648,0.79998779296875,14.59999351501465C0.79998779296875,16.13999351501465,2.05398779296875,17.39999351501465,3.59998779296875,17.39999351501465Z" fill="#EAEEF9" fill-opacity="1"/></g></g><g filter="url(#master_svg0_32_69)" style="mix-blend-mode:passthrough"><g><path d="M91.5490029296875,27.18999351501465C90.1810029296875,25.27999351501465,88.1290029296875,25.449993515014647,87.4020029296875,27.77999351501465C85.7780029296875,32.96999351501465,80.6900029296875,34.88999351501465,77.5700029296875,35.349993515014646C75.7740029296875,22.03999351501465,64.3170029296875,11.799993515014648,50.4650029296875,11.799993515014648C36.6570029296875,11.799993515014648,25.2420029296875,21.999993515014648,23.4040029296875,35.22999351501465C20.2400029296875,34.62999351501465,15.6230029296875,32.66999351501465,14.0840029296875,27.739993515014646C13.3570029296875,25.39999351501465,11.3050029296875,25.27999351501465,9.9370029296875,27.14999351501465C7.1580029296875,30.96999351501465,8.3130073296875,35.85999351501465,10.0230029296875,39.85999351501465C12.545002929687499,45.93999351501465,17.4190029296875,50.279993515014645,23.147002929687503,53.209993515014645C23.019002929687503,60.39999351501465,22.5060029296875,66.26999351501465,20.4970029296875,73.83999351501464C19.8130029296875,76.42999351501464,19.2140029296875,78.55999351501465,18.6590029296875,79.95999351501465C18.274002929687498,80.93999351501465,18.0170029296875,81.91999351501465,18.6160029296875,82.89999351501464C19.6420029296875,84.54999351501465,21.6510029296875,85.05999351501465,23.4890029296875,85.35999351501465C25.1990029296875,85.65999351501465,26.6530029296875,85.78999351501464,27.8500029296875,85.82999351501465Q30.7570029296875,85.91999351501465,32.0400029296875,85.48999351501465Q32.2530029296875,85.82999351501465,32.8090029296875,86.29999351501465C34.3910029296875,87.69999351501465,38.7940029296875,90.41999351501465,48.7130029296875,90.03999351501464C61.0680029296875,89.56999351501464,65.8130029296875,88.37999351501465,67.99300292968749,86.50999351501464C68.1640029296875,86.33999351501465,68.3350029296875,86.20999351501465,68.4640029296875,86.03999351501464C69.83200292968749,86.03999351501464,71.0710029296875,86.08999351501465,72.18300292968749,86.08999351501465C76.0730029296875,86.12999351501465,78.8520029296875,86.20999351501465,81.0750029296875,85.39999351501464C82.8280029296875,84.76999351501465,83.9390029296875,82.72999351501466,82.8280029296875,80.55999351501465C79.4930029296875,74.00999351501466,77.7830029296875,66.77999351501464,77.7830029296875,59.419993515014646L77.7830029296875,53.46999351501465C83.7260029296875,50.53999351501465,88.8560029296875,46.15999351501465,91.4640029296875,39.85999351501465C93.1740029296875,35.85999351501465,94.3280029296875,30.96999351501465,91.5490029296875,27.18999351501465Z" fill="url(#master_svg1_32_075)"/></g></g><g style="mix-blend-mode:passthrough"><g><path d="M72.224970703125,85.99999481201172C71.070970703125,85.99999481201172,69.830970703125,85.95999481201171,68.505970703125,85.95999481201171C68.377970703125,86.12999481201172,68.206970703125,86.29999481201172,68.035970703125,86.42999481201171C66.795970703125,80.93999481201172,65.726974703125,75.32999481201172,65.469970703125,68.43999481201172C67.222970703125,74.34999481201172,69.445970703125,81.31999481201171,72.224970703125,85.99999481201172Z" fill="#DFE0E2" fill-opacity="1"/></g></g><g style="mix-blend-mode:passthrough"><g><path d="M32.8089990234375,86.25999450683594Q32.252999023437496,85.78999450683594,32.0389990234375,85.44999450683594Q30.7569990234375,85.91999450683593,27.8489990234375,85.78999450683594C30.2859990234375,81.31999450683594,32.4669990234375,72.94999450683594,32.2099990234375,67.75999450683594C32.5949990234375,76.89999450683594,32.7229990234375,82.63999450683593,32.8089990234375,86.25999450683594Z" fill="#DFE0E2" fill-opacity="1"/></g></g><g style="mix-blend-mode:passthrough"><g><path d="M40.333005859375,42.74999481201172C42.363005859375,42.74999481201172,44.009005859375,41.11999481201172,44.009005859375,39.099994812011715C44.009005859375,37.07999481201172,42.363005859375,35.43999481201172,40.333005859375,35.43999481201172C38.302005859375,35.43999481201172,36.656005859375,37.07999481201172,36.656005859375,39.099994812011715C36.656005859375,41.11999481201172,38.302005859375,42.74999481201172,40.333005859375,42.74999481201172Z" fill="#9CA4B5" fill-opacity="1"/></g></g><g style="mix-blend-mode:passthrough"><g><path d="M58.715990234375,44.66999496459961C61.808990234375,44.66999496459961,64.315990234375,42.16999496459961,64.315990234375,39.09999496459961C64.315990234375,36.01999496459961,61.808990234375,33.52999496459961,58.715990234375,33.52999496459961C55.622990234375,33.52999496459961,53.114990234375,36.01999496459961,53.114990234375,39.09999496459961C53.114990234375,42.16999496459961,55.622990234375,44.66999496459961,58.715990234375,44.66999496459961Z" fill="#9CA4B5" fill-opacity="1"/></g></g><g style="mix-blend-mode:passthrough"><g><path d="M60.168996582031255,49.809993743896484C60.168996582031255,51.21999374389648,55.29599658203125,52.35999374389648,49.309996582031246,52.35999374389648C43.28299658203125,52.35999374389648,38.40899658203125,51.21999374389648,38.40899658203125,49.809993743896484L60.168996582031255,49.809993743896484Z" fill="#9CA4B5" fill-opacity="1"/></g></g><g style="mix-blend-mode:passthrough"><g><path d="M51.83299365234375,62.0599934387207C49.05399365234375,62.0599934387207,46.83099365234375,59.8099934387207,46.83099365234375,57.079993438720706L46.83099365234375,51.1299934387207L56.87699365234375,51.1299934387207L56.87699365234375,57.079993438720706C56.87699365234375,59.8099934387207,54.61199365234375,62.0599934387207,51.83299365234375,62.0599934387207Z" fill="#9CA4B5" fill-opacity="1"/></g></g><g style="opacity:0.20000000298023224;mix-blend-mode:passthrough"><g><path d="M50.465013183593754,101.30999420166016C66.54401318359375,101.30999420166016,79.57801318359375,98.79999420166016,79.57801318359375,95.69999420166016C79.57801318359375,92.59999420166015,66.54401318359375,90.07999420166016,50.465013183593754,90.07999420166016C34.38601318359375,90.07999420166016,21.35101318359375,92.59999420166015,21.35101318359375,95.69999420166016C21.35101318359375,98.79999420166016,34.38601318359375,101.30999420166016,50.465013183593754,101.30999420166016Z" fill="#A0A9BA" fill-opacity="1"/></g></g></g></g></svg>